<?xml version="1.0" encoding="utf-8"?>
<!-- Generator: Adobe Illustrator 21.1.0, SVG Export Plug-In . SVG Version: 6.00 Build 0)  -->
<svg version="1.1" id="avatar" xmlns="http://www.w3.org/2000/svg" xmlns:xlink="http://www.w3.org/1999/xlink" x="0px" y="0px"
	 viewBox="0 0 65.1 21.8" style="enable-background:new 0 0 65.1 21.8;" xml:space="preserve">
<path id="uno" d="M20.5,21.2H14v-2.8h-0.1c-1.3,2.1-3.9,3.4-6.3,3.4C1.7,21.8,0,18.4,0,13V0.6h6.7v11.9c0,2.7,1.2,3.7,3.3,3.7
	c1.4,0,3.7-1,3.7-4.6v-11h6.7v20.6H20.5z M22.2,0.6h6.5v2.8h0.1c1.3-2.1,4-3.4,6.5-3.4c6.9,0,7.4,5,7.4,8v13.2H36v-12
	c0-2-0.7-3.6-3.4-3.6c-2.5,0-3.7,2.2-3.7,4.4v11.2h-6.7C22.2,21.2,22.2,0.6,22.2,0.6z M54.2,0c6.4,0,10.9,4.7,10.9,10.9
	s-4.5,10.9-10.9,10.9s-10.8-4.7-10.8-10.9C43.4,4.7,47.8,0,54.2,0z M54.2,16.6c3.2,0,4.1-3.1,4.1-5.7s-1-5.8-4.1-5.8
	s-4.1,3.1-4.1,5.8C50.1,13.6,51.1,16.6,54.2,16.6z"/>
</svg>
