<svg width="176" height="57" viewBox="0 0 176 57" fill="none" xmlns="http://www.w3.org/2000/svg">
<path d="M36.2502 32.1362V1.45437H55.8525V55.9998H37.2445V45.6305H36.6763C35.4926 49.1106 33.4211 51.8332 30.4618 53.7981C27.5025 55.7394 23.9869 56.71 19.915 56.71C16.1034 56.71 12.7653 55.8341 9.90075 54.0822C7.05984 52.3303 4.8463 49.9155 3.26012 46.8379C1.69762 43.7602 0.904534 40.2328 0.880859 36.2555V1.45437H20.4831V32.1362C20.5068 34.835 21.1934 36.9539 22.5428 38.4927C23.9159 40.0315 25.8335 40.801 28.2956 40.801C29.9292 40.801 31.3378 40.4577 32.5215 39.7711C33.7289 39.0609 34.6522 38.0666 35.2914 36.7882C35.9542 35.4861 36.2739 33.9354 36.2502 32.1362Z" fill="#E6E6E6"/>
<path d="M80.4245 25.318V55.9998H60.8223V1.45437H79.4302V11.8237H79.9984C81.1821 8.36725 83.2655 5.65654 86.2484 3.69158C89.255 1.72662 92.7588 0.744141 96.7598 0.744141C100.619 0.744141 103.969 1.63192 106.809 3.40749C109.674 5.15938 111.888 7.57416 113.45 10.6518C115.036 13.7295 115.818 17.2451 115.794 21.1987V55.9998H96.1916V25.318C96.2153 22.6191 95.5287 20.5003 94.1319 18.9615C92.7588 17.4226 90.8412 16.6532 88.3791 16.6532C86.7692 16.6532 85.3606 17.0083 84.1532 17.7186C82.9695 18.4051 82.0581 19.3994 81.4189 20.7015C80.7796 21.9799 80.4482 23.5188 80.4245 25.318Z" fill="#E6E6E6"/>
<path d="M146.749 56.9941C140.831 56.9941 135.764 55.8223 131.55 53.4785C127.336 51.1111 124.105 47.8204 121.856 43.6064C119.607 39.3687 118.482 34.4563 118.482 28.8691C118.482 23.282 119.607 18.3814 121.856 14.1674C124.105 9.92975 127.336 6.63902 131.55 4.29527C135.764 1.92785 140.831 0.744141 146.749 0.744141C152.668 0.744141 157.734 1.92785 161.948 4.29527C166.162 6.63902 169.394 9.92975 171.643 14.1674C173.892 18.3814 175.016 23.282 175.016 28.8691C175.016 34.4563 173.892 39.3687 171.643 43.6064C169.394 47.8204 166.162 51.1111 161.948 53.4785C157.734 55.8223 152.668 56.9941 146.749 56.9941ZM146.891 42.5055C148.548 42.5055 149.981 41.9492 151.188 40.8365C152.395 39.7238 153.331 38.1376 153.993 36.0779C154.656 34.0183 154.988 31.568 154.988 28.7271C154.988 25.8625 154.656 23.4122 153.993 21.3762C153.331 19.3166 152.395 17.7304 151.188 16.6177C149.981 15.505 148.548 14.9487 146.891 14.9487C145.139 14.9487 143.636 15.505 142.381 16.6177C141.126 17.7304 140.168 19.3166 139.505 21.3762C138.842 23.4122 138.51 25.8625 138.51 28.7271C138.51 31.568 138.842 34.0183 139.505 36.0779C140.168 38.1376 141.126 39.7238 142.381 40.8365C143.636 41.9492 145.139 42.5055 146.891 42.5055Z" fill="#E6E6E6"/>
</svg>
